HIERARCHY
ROOT Hips
{
	OFFSET 0.000000 0.000000 0.000000
	CHANNELS 6 Xposition Yposition Zposition Zrotation Yrotation Xrotation 
	JOINT LHipJoint
	{
		OFFSET 0.000000 0.000000 0.000000
		CHANNELS 3 Zrotation Yrotation Xrotation
		JOINT LeftUpLeg
		{
			OFFSET 1.363060 -1.794630 0.839290
			CHANNELS 3 Zrotation Yrotation Xrotation
			JOINT LeftLeg
			{
				OFFSET 2.448110 -6.726130 0.000000
				CHANNELS 3 Zrotation Yrotation Xrotation
				JOINT LeftFoot
				{
					OFFSET 2.562200 -7.039590 0.000000
					CHANNELS 3 Zrotation Yrotation Xrotation
					JOINT LeftToeBase
					{
						OFFSET 0.157640 -0.433110 2.322550
						CHANNELS 3 Zrotation Yrotation Xrotation
						End Site
						{
							OFFSET 0.000000 0.000000 0.000000
						}
					}
				}
			}
		}
	}
	JOINT RHipJoint
	{
		OFFSET 0.000000 0.000000 0.000000
		CHANNELS 3 Zrotation Yrotation Xrotation
		JOINT RightUpLeg
		{
			OFFSET -1.305520 -1.794630 0.839290
			CHANNELS 3 Zrotation Yrotation Xrotation
			JOINT RightLeg
			{
				OFFSET -2.542530 -6.985550 0.000000
				CHANNELS 3 Zrotation Yrotation Xrotation
				JOINT RightFoot
				{
					OFFSET -2.568260 -7.056230 0.000000
					CHANNELS 3 Zrotation Yrotation Xrotation
					JOINT RightToeBase
					{
						OFFSET -0.164730 -0.452590 2.363150
						CHANNELS 3 Zrotation Yrotation Xrotation
						End Site
						{
							OFFSET 0.000000 0.000000 0.000000
						}
					}
				}
			}
		}
	}
	JOINT LowerBack
	{
		OFFSET 0.000000 0.000000 0.000000
		CHANNELS 3 Zrotation Yrotation Xrotation
		JOINT Spine
		{
			OFFSET 0.028270 2.035590 -0.193380
			CHANNELS 3 Zrotation Yrotation Xrotation
			JOINT Spine1
			{
				OFFSET 0.056720 2.048850 -0.042750
				CHANNELS 3 Zrotation Yrotation Xrotation
				JOINT Neck
				{
					OFFSET 0.000000 0.000000 0.000000
					CHANNELS 3 Zrotation Yrotation Xrotation
					JOINT Neck1
					{
						OFFSET -0.054170 1.746240 0.172020
						CHANNELS 3 Zrotation Yrotation Xrotation
						JOINT Head
						{
							OFFSET 0.104070 1.761360 -0.123970
							CHANNELS 3 Zrotation Yrotation Xrotation
							End Site
							{
								OFFSET 0.000000 0.000000 0.000000
							}
						}
					}
				}
				JOINT LeftShoulder
				{
					OFFSET 0.000000 0.000000 0.000000
					CHANNELS 3 Zrotation Yrotation Xrotation
					JOINT LeftArm
					{
						OFFSET 3.362410 1.200890 -0.311210
						CHANNELS 3 Zrotation Yrotation Xrotation
						JOINT LeftForeArm
						{
							OFFSET 4.983000 -0.000000 -0.000000
							CHANNELS 3 Zrotation Yrotation Xrotation
							JOINT LeftHand
							{
								OFFSET 3.483560 -0.000000 -0.000000
								CHANNELS 3 Zrotation Yrotation Xrotation
								JOINT LeftFingerBase
								{
									OFFSET 0.000000 0.000000 0.000000
									CHANNELS 3 Zrotation Yrotation Xrotation
									JOINT LeftHandIndex1
									{
										OFFSET 0.715260 -0.000000 -0.000000
										CHANNELS 3 Zrotation Yrotation Xrotation
										End Site
										{
											OFFSET 0.000000 0.000000 0.000000
										}
									}
								}
								JOINT LThumb
								{
									OFFSET 0.000000 0.000000 0.000000
									CHANNELS 3 Zrotation Yrotation Xrotation
									End Site
									{
										OFFSET 0.000000 0.000000 0.000000
									}
								}
							}
						}
					}
				}
				JOINT RightShoulder
				{
					OFFSET 0.000000 0.000000 0.000000
					CHANNELS 3 Zrotation Yrotation Xrotation
					JOINT RightArm
					{
						OFFSET -3.136600 1.374050 -0.404650
						CHANNELS 3 Zrotation Yrotation Xrotation
						JOINT RightForeArm
						{
							OFFSET -5.241900 -0.000000 -0.000000
							CHANNELS 3 Zrotation Yrotation Xrotation
							JOINT RightHand
							{
								OFFSET -3.444170 -0.000000 -0.000000
								CHANNELS 3 Zrotation Yrotation Xrotation
								JOINT RightFingerBase
								{
									OFFSET 0.000000 0.000000 0.000000
									CHANNELS 3 Zrotation Yrotation Xrotation
									JOINT RightHandIndex1
									{
										OFFSET -0.622530 -0.000000 -0.000000
										CHANNELS 3 Zrotation Yrotation Xrotation
										End Site
										{
											OFFSET 0.000000 0.000000 0.000000
										}
									}
								}
								JOINT RThumb
								{
									OFFSET 0.000000 0.000000 0.000000
									CHANNELS 3 Zrotation Yrotation Xrotation
									End Site
									{
										OFFSET 0.000000 0.000000 0.000000
									}
								}
							}
						}
					}
				}
			}
		}
	}
}
MOTION
Frames: 10
Frame Time: 0.008333
-0.762590 17.016252 -0.745003 12.642994 81.006290 22.293953 -12.025963 5.341287 0.157508 -0.114491 12.907911 0.653691 -0.619744 1.856671 27.779543 0.639586 -6.969330 21.659630 -3.493000 0.000000 -83.294700 7.720218 -1.176131 4.441720 15.186633 5.635513 -26.291446 2.974859 1.547334 2.493304 -1.748762 -9.022218 -0.774540 -2.263000 -0.000001 -21.492100 2.181730 -6.012132 -5.720220 0.207393 -6.335644 -3.624297 -6.129022 -6.365671 1.540127 9.754912 -18.224580 -9.381957 -3.627223 -0.262940 -0.385343 0.000000 0.000000 0.000000 0.617748 3.275356 0.600038 -53.117279 -15.130785 0.152532 -1.579346 -62.476456 -0.047159 10.187701 -2.747308 -0.276228 -0.147448 0.331216 -0.000000 0.000000 0.000000 0.000000 0.000000 0.000000 0.000000 17.851056 -17.490012 0.205583 64.158717 -11.539761 -14.485022 2.426363 44.577600 0.001694 -3.448681 2.659793 -0.084977 0.122370 -0.086991 0.000000 0.000000 0.000000 0.000000 0.000000 0.000000 0.000000 
-0.584760 17.026888 -0.685978 8.747279 80.414813 18.382039 -12.135931 5.313652 0.131629 0.615076 13.150848 -0.386936 -0.483872 1.964161 30.243896 0.795727 -7.174366 23.294718 -3.860600 0.000000 -79.804000 7.605612 -1.233939 4.420020 15.978187 6.015696 -25.887421 3.082251 1.431065 3.583114 -1.638119 -8.374420 -1.152732 -2.061100 0.000000 -19.040900 2.650208 -5.834568 -5.681325 0.283867 -6.200711 -3.643063 -6.152920 -6.231215 1.471881 9.751353 -17.962603 -9.331764 -3.643817 -0.265060 -0.372448 0.000000 0.000000 0.000000 0.547109 3.357176 0.584939 -54.076113 -14.346201 0.338514 -1.605892 -62.258556 -0.045451 10.108608 -2.807145 -0.278857 -0.146266 0.324279 -0.000000 0.000000 0.000000 0.000000 0.000000 0.000000 0.000000 17.812571 -17.114497 0.218964 64.168264 -10.946357 -13.918412 2.421415 44.620090 0.001502 -3.474909 2.639164 -0.084970 0.121737 -0.088519 0.000000 0.000000 0.000000 0.000000 0.000000 0.000000 0.000000 
-0.411628 17.036336 -0.625572 5.585350 79.815316 15.201289 -12.210384 5.253757 0.092025 1.235518 13.347213 -1.482184 -0.363888 2.065560 32.767305 0.944088 -7.034581 24.597996 -4.023600 0.000000 -75.427300 7.513305 -1.285918 4.387833 16.725444 6.317496 -25.441510 3.182878 1.323787 4.585215 -1.528003 -7.687108 -1.632537 -1.842000 -0.000000 -16.253500 3.048418 -5.670441 -5.610630 0.345330 -6.073117 -3.653195 -6.182232 -6.104293 1.400774 9.779843 -17.680137 -9.276808 -3.662027 -0.267280 -0.358651 0.000000 0.000000 0.000000 0.539612 3.412621 0.574476 -55.059469 -13.541017 0.534181 -1.632428 -61.935879 -0.043614 10.005328 -2.852801 -0.279394 -0.144682 0.316817 -0.000000 0.000000 0.000000 0.000000 0.000000 0.000000 0.000000 17.814072 -16.724308 0.229599 64.219385 -10.292662 -13.289054 2.412638 44.675976 0.001329 -3.486922 2.630852 -0.085063 0.120720 -0.090230 0.000000 0.000000 0.000000 0.000000 0.000000 0.000000 0.000000 
-0.243021 17.044794 -0.563340 3.190179 79.222286 12.787571 -12.258870 5.167400 0.041304 1.721041 13.491647 -2.634522 -0.254951 2.165159 35.322442 1.081444 -6.466671 25.501765 -3.913899 0.000000 -70.492300 7.437536 -1.333539 4.347072 17.400697 6.539131 -24.953661 3.273622 1.230180 5.473580 -1.424112 -6.995771 -2.192159 -1.620099 -0.000000 -13.241600 3.347293 -5.523141 -5.518547 0.386089 -5.953686 -3.655719 -6.217136 -5.985709 1.330972 9.842991 -17.391310 -9.221212 -3.682035 -0.269579 -0.344989 0.000000 0.000000 0.000000 0.584991 3.446113 0.569296 -56.043063 -12.725091 0.745390 -1.659443 -61.509020 -0.041616 9.870870 -2.878893 -0.277239 -0.142689 0.308709 -0.000000 0.000000 0.000000 0.000000 0.000000 0.000000 0.000000 17.864933 -16.334668 0.236074 64.303136 -9.569324 -12.583419 2.400399 44.736856 0.001178 -3.496103 2.641250 -0.085655 0.119436 -0.092131 0.000000 0.000000 0.000000 0.000000 0.000000 0.000000 0.000000 
-0.078560 17.052449 -0.499458 1.416591 78.641208 10.999178 -12.290335 5.060138 -0.019632 2.082038 13.591993 -3.847127 -0.152515 2.267179 37.882410 1.208851 -5.439342 25.971506 -3.505299 0.000000 -65.411900 7.371193 -1.375668 4.303849 18.002173 6.707722 -24.408606 3.354229 1.157364 6.206960 -1.334163 -6.351010 -2.803663 -1.411000 -0.000000 -10.051300 3.554414 -5.389432 -5.414508 0.407125 -5.839914 -3.652866 -6.259137 -5.872876 1.263628 9.936555 -17.090622 -9.164907 -3.705091 -0.272066 -0.331438 0.000000 0.000000 0.000000 0.663360 3.471280 0.571697 -57.007278 -11.916819 0.980015 -1.688782 -60.972858 -0.039433 9.699093 -2.881201 -0.271891 -0.140329 0.299876 -0.000000 0.000000 0.000000 0.000000 0.000000 0.000000 0.000000 17.966631 -15.937319 0.237604 64.414074 -8.789176 -11.813594 2.385066 44.806162 0.001055 -3.500154 2.673625 -0.086746 0.117883 -0.094256 0.000000 0.000000 0.000000 0.000000 0.000000 0.000000 0.000000 
0.082200 17.059730 -0.433925 0.177922 78.076918 9.752650 -12.309585 4.936653 -0.086667 2.318210 13.642727 -5.117463 -0.052423 2.373096 40.414195 1.330163 -3.952995 26.000901 -2.806500 0.000000 -60.541800 7.312059 -1.411637 4.261281 18.522871 6.835239 -23.805981 3.423903 1.107983 6.768422 -1.261249 -5.779331 -3.438346 -1.222700 0.000000 -6.842900 3.670566 -5.267876 -5.308215 0.408476 -5.730658 -3.646348 -6.308628 -5.764604 1.201292 10.057460 -16.783584 -9.109720 -3.731833 -0.274786 -0.318456 0.000000 0.000000 0.000000 0.757028 3.497522 0.582405 -57.933205 -11.125831 1.243298 -1.721702 -60.329426 -0.037053 9.484979 -2.855422 -0.262848 -0.137621 0.290221 -0.000000 0.000000 0.000000 0.000000 0.000000 0.000000 0.000000 18.121554 -15.537042 0.233274 64.543204 -7.950879 -10.976323 2.367348 44.876610 0.000961 -3.503996 2.731273 -0.088736 0.116139 -0.096609 0.000000 0.000000 0.000000 0.000000 0.000000 0.000000 0.000000 
0.239838 17.067012 -0.366843 -0.634715 77.531522 8.941852 -12.319537 4.799948 -0.155351 2.438732 13.637195 -6.439698 0.047783 2.482466 42.884297 1.450614 -2.051713 25.603842 -1.865300 -0.000001 -56.143100 7.258703 -1.440913 4.222591 18.963405 6.937289 -23.146869 3.482711 1.083024 7.149734 -1.206791 -5.298004 -4.070443 -1.059200 -0.000000 -3.753500 3.705919 -5.156009 -5.208085 0.392098 -5.624622 -3.638072 -6.365915 -5.659588 1.144969 10.200375 -16.467675 -9.054992 -3.763178 -0.277834 -0.305848 0.000000 0.000000 0.000000 0.848669 3.534568 0.602253 -58.807246 -10.360171 1.539046 -1.759618 -59.580812 -0.034475 9.225979 -2.799108 -0.250209 -0.134612 0.279690 -0.000000 0.000000 0.000000 0.000000 0.000000 0.000000 0.000000 18.328568 -15.129927 0.222436 64.684254 -7.063298 -10.078868 2.347775 44.946137 0.000896 -3.506211 2.814200 -0.091425 0.114225 -0.099184 0.000000 0.000000 0.000000 0.000000 0.000000 0.000000 0.000000 
0.394853 17.074746 -0.298244 -1.096544 77.005648 8.492701 -12.321665 4.652387 -0.221267 2.451660 13.567837 -7.804046 0.148554 2.593469 45.260420 1.574902 0.185473 24.802466 -0.757900 0.000000 -52.268700 7.211480 -1.463551 4.189038 19.322482 7.023075 -22.439480 3.530488 1.080429 7.360043 -1.168948 -4.906980 -4.675934 -0.920401 -0.000000 -0.963000 3.667545 -5.052558 -5.120229 0.359895 -5.521360 -3.628799 -6.429329 -5.557385 1.098014 10.360566 -16.158217 -9.004019 -3.798424 -0.281133 -0.294459 0.000000 0.000000 0.000000 0.923043 3.588085 0.629828 -59.618944 -9.621135 1.864961 -1.803047 -58.736136 -0.031730 8.920980 -2.709097 -0.233873 -0.131314 0.268249 0.000000 0.000000 0.000000 0.000000 0.000000 0.000000 0.000000 18.583709 -14.732268 0.204936 64.828149 -6.109346 -9.101806 2.327542 44.995852 0.000854 -3.517039 2.923333 -0.095211 0.112296 -0.101956 0.000000 0.000000 0.000000 0.000000 0.000000 0.000000 0.000000 
0.547748 17.083245 -0.228387 -1.310304 76.497638 8.303500 -12.316942 4.495044 -0.280722 2.376979 13.431093 -9.198922 0.248623 2.703351 47.508753 1.707112 2.651861 23.638989 0.420500 -0.000000 -48.964700 7.169354 -1.479500 4.163388 19.607780 7.111814 -21.687887 3.568192 1.098327 7.409685 -1.146459 -4.605237 -5.242615 179.195800 0.000000 -1.495401 3.572032 -4.954817 -5.049831 0.315112 -5.419820 -3.620655 -6.499108 -5.457030 1.057785 10.530769 -15.835534 -8.950840 -3.839036 -0.284876 -0.282680 0.000000 0.000000 0.000000 0.970407 3.664302 0.666168 -60.366000 -8.909223 2.219520 -1.853044 -57.799361 -0.028860 8.572885 -2.586928 -0.214540 -0.127817 0.255959 -0.000000 0.000000 0.000000 0.000000 0.000000 0.000000 0.000000 18.881296 -14.321907 0.180823 64.976573 -5.119723 -8.074797 2.306524 45.036690 0.000836 -3.520815 3.051099 -0.099397 0.110222 -0.104894 0.000000 0.000000 0.000000 0.000000 0.000000 0.000000 0.000000 
0.698914 17.092776 -0.157389 -1.327178 76.004798 8.322200 -12.305670 4.329499 -0.330811 2.228093 13.223843 -10.609178 0.345419 2.809097 49.597084 1.848691 5.227071 22.159892 1.572299 -0.000000 -46.104399 7.133039 -1.489151 4.145037 19.821883 7.211583 -20.902956 3.596189 1.132076 7.325763 -1.135065 -4.375621 -5.759980 179.293000 -0.000000 -3.543800 3.427328 -4.861705 -4.998259 0.260212 -5.319590 -3.613224 -6.571720 -5.358116 1.028255 10.705964 -15.522740 -8.900305 -3.882756 -0.288839 -0.271767 0.000000 0.000000 0.000000 0.982650 3.766109 0.707836 -61.047993 -8.219847 2.593080 -1.908993 -56.785237 -0.025929 8.186556 -2.432732 -0.192706 -0.124157 0.242893 -0.000000 0.000000 0.000000 0.000000 0.000000 0.000000 0.000000 19.211292 -13.923869 0.150862 65.123233 -4.064683 -6.965235 2.286172 45.042995 0.000828 -3.531020 3.196440 -0.104281 0.108218 -0.107959 0.000000 0.000000 0.000000 0.000000 0.000000 0.000000 0.000000 
